<?xml version="1.0" encoding="UTF-8"?>
<svg id="Layer_1" data-name="Layer 1" xmlns="http://www.w3.org/2000/svg" viewBox="0 0 64 64">
  <defs>
    <style>
      .cls-1 {
        fill: #7a7a7a;
      }

      .cls-2 {
        fill: #fff;
      }

      .cls-3 {
        fill: #161616;
      }
    </style>
  </defs>
  <g>
    <rect class="cls-2" x="4.461" y="1.532" width="55.078" height="55.079" rx="7.771" ry="7.771"/>
    <path class="cls-3" d="M51.768,3.063c3.44,0,6.239,2.799,6.239,6.239v39.536c0,3.44-2.799,6.239-6.239,6.239H12.232c-3.44,0-6.239-2.799-6.239-6.239V9.302c0-3.44,2.799-6.239,6.239-6.239h39.536M51.768,0H12.232C7.094,0,2.929,4.165,2.929,9.302v39.536c0,5.138,4.165,9.302,9.302,9.302h39.536c5.138,0,9.302-4.165,9.302-9.302V9.302C61.071,4.165,56.906,0,51.768,0h0Z"/>
  </g>
  <path class="cls-1" d="M31.928,34.631h0c8.394,0,15.209,6.815,15.209,15.209v6.784h-30.417v-6.784c0-8.394,6.815-15.209,15.209-15.209Z"/>
  <g>
    <g>
      <path class="cls-2" d="M8.574,62.479c-3.888,0-7.052-3.164-7.052-7.053s3.164-7.052,7.052-7.052,7.052,3.164,7.052,7.052-3.164,7.053-7.052,7.053Z"/>
      <path class="cls-3" d="M8.574,49.896c3.049,0,5.53,2.481,5.53,5.53s-2.481,5.53-5.53,5.53-5.53-2.481-5.53-5.53,2.481-5.53,5.53-5.53M8.574,46.852C3.839,46.852,0,50.691,0,55.426s3.839,8.574,8.574,8.574,8.574-3.839,8.574-8.574-3.839-8.574-8.574-8.574h0Z"/>
    </g>
    <g>
      <path class="cls-2" d="M20.287,62.479c-3.889,0-7.052-3.164-7.052-7.053s3.164-7.052,7.052-7.052,7.052,3.164,7.052,7.052-3.164,7.053-7.052,7.053Z"/>
      <path class="cls-3" d="M20.287,49.896c3.049,0,5.53,2.481,5.53,5.53s-2.481,5.53-5.53,5.53-5.53-2.481-5.53-5.53,2.481-5.53,5.53-5.53M20.287,46.852c-4.735,0-8.574,3.839-8.574,8.574s3.839,8.574,8.574,8.574,8.574-3.839,8.574-8.574-3.839-8.574-8.574-8.574h0Z"/>
    </g>
    <g>
      <path class="cls-2" d="M32,62.479c-3.888,0-7.052-3.164-7.052-7.053s3.164-7.052,7.052-7.052,7.053,3.164,7.053,7.052-3.164,7.053-7.053,7.053Z"/>
      <path class="cls-3" d="M32,49.896c3.049,0,5.53,2.481,5.53,5.53s-2.481,5.53-5.53,5.53-5.53-2.481-5.53-5.53,2.481-5.53,5.53-5.53M32,46.852c-4.735,0-8.574,3.839-8.574,8.574s3.839,8.574,8.574,8.574,8.574-3.839,8.574-8.574-3.839-8.574-8.574-8.574h0Z"/>
    </g>
    <g>
      <path class="cls-2" d="M43.713,62.479c-3.888,0-7.052-3.164-7.052-7.053s3.164-7.052,7.052-7.052,7.053,3.164,7.053,7.052-3.164,7.053-7.053,7.053Z"/>
      <path class="cls-3" d="M43.713,49.896c3.049,0,5.53,2.481,5.53,5.53s-2.481,5.53-5.53,5.53-5.53-2.481-5.53-5.53,2.481-5.53,5.53-5.53M43.713,46.852c-4.735,0-8.574,3.839-8.574,8.574s3.839,8.574,8.574,8.574,8.574-3.839,8.574-8.574-3.839-8.574-8.574-8.574h0Z"/>
    </g>
    <g>
      <path class="cls-2" d="M55.426,62.479c-3.888,0-7.052-3.164-7.052-7.053s3.164-7.052,7.052-7.052,7.053,3.164,7.053,7.052-3.164,7.053-7.053,7.053Z"/>
      <path class="cls-3" d="M55.426,49.896c3.049,0,5.53,2.481,5.53,5.53s-2.481,5.53-5.53,5.53-5.53-2.481-5.53-5.53,2.481-5.53,5.53-5.53M55.426,46.852c-4.735,0-8.574,3.839-8.574,8.574s3.839,8.574,8.574,8.574,8.574-3.839,8.574-8.574-3.839-8.574-8.574-8.574h0Z"/>
    </g>
  </g>
  <circle class="cls-1" cx="32" cy="20.41" r="9.259"/>
</svg>