<?xml version="1.0" encoding="UTF-8"?>
<svg id="Layer_1" xmlns="http://www.w3.org/2000/svg" version="1.1" viewBox="0 0 200 200">
  <!-- Generator: Adobe Illustrator 30.4.0, SVG Export Plug-In . SVG Version: 2.1.4 Build 226)  -->
  <defs>
    <style>
      .st0 {
        fill: #ddd;
      }

      .st1 {
        fill: #999;
      }
    </style>
  </defs>
  <rect class="st0" width="200" height="200"/>
  <g>
    <path class="st1" d="M20,105.9c-.7,0-1.3-.2-1.8-.5-.5-.3-.9-.9-1.2-1.6-.3-.7-.5-1.7-.5-2.9,0-1.9.4-3.5,1.2-4.8.8-1.3,1.7-2,2.9-2s2.1.5,2.8,1.5c0,0,0,.1,0,.2,0,.2,0,.3-.2.6-.1.2-.3.3-.5.3s-.2,0-.3-.2c-.4-.8-1.1-1.2-2-1.2s-1.7.9-2.3,2.7c-.3.8-.4,1.8-.4,2.9,0,2.6.8,3.9,2.3,3.9s2-.7,2.8-2c.1-.2.3-.3.4-.3s.3.1.3.4,0,.2-.1.4c-.2.5-.6,1-1.1,1.6-.7.7-1.5,1-2.4,1Z"/>
    <path class="st1" d="M28.6,105.9c-.6,0-1-.2-1.3-.5-.3-.4-.4-.9-.4-1.6v-8.5c-.4,0-.7,0-1,0s-.5,0-.6,0c-.2,0-.3-.1-.4-.3s-.2-.4-.2-.6c0-.2,0-.4.2-.4.4,0,.7,0,.8,0,.7,0,1.3,0,1.8-.2.3,0,.5.2.6.5,0,.1.1.2.1.4s0,.2,0,.3c0,0,0,3,0,8.7s0,.6,0,.7.2.2.5.2c.5,0,1-.2,1.7-.6.2-.1.3-.2.5-.2s.2,0,.2.3,0,.3-.2.5c-.1.2-.3.4-.6.6-.2.2-.5.4-.9.5s-.6.2-.9.2Z"/>
    <path class="st1" d="M33.7,105.8c-.2,0-.4-.1-.5-.3-.1-.2-.2-.4-.2-.6,0-.3.1-.4.3-.4h.6s1.3,0,1.3,0c0-.4,0-2.3,0-5.6-.3,0-.6,0-.8,0s-.4,0-.6,0c-.2,0-.4-.1-.5-.4-.1-.2-.2-.4-.2-.6,0-.2.1-.4.3-.4.4,0,.6,0,.7,0,.7,0,1.3,0,1.6-.2.3,0,.5.2.7.5,0,.1.1.2.1.3s0,.2,0,.2c0,0,0,.2,0,.3,0,3.1,0,4.9,0,5.5.9,0,1.5,0,1.6,0,.2,0,.4.1.5.4.1.2.2.4.2.6,0,.2-.1.4-.3.4-.4,0-1,0-1.8,0-1.4,0-2.5,0-3.2.1ZM36,96.2c-.2,0-.4-.1-.6-.4-.2-.2-.3-.5-.3-.7s0-.4.2-.6.4-.3.6-.3.4.1.6.4c.2.2.3.5.3.7s0,.4-.2.6c-.1.2-.4.3-.6.3Z"/>
    <path class="st1" d="M43.8,105.9c-.5,0-1-.1-1.5-.4-.4-.3-.8-.7-1.1-1.2s-.4-1.1-.4-1.9c0-1.2.4-2.4,1.2-3.3.8-.9,1.7-1.4,2.7-1.4s1.3.2,1.8.7c.3.3.5.6.5.8s0,.4-.2.6c-.2.2-.3.3-.5.3s-.2,0-.3-.2c-.2-.6-.6-.9-1.1-.9s-1.1.3-1.7,1c-.6.7-.9,1.6-.9,2.5s0,1,.3,1.4c.2.4.4.6.7.8s.5.3.7.3c.9,0,1.9-.5,2.8-1.6.2-.2.3-.3.5-.3s.3,0,.3.3,0,.2-.2.5c-.1.3-.3.6-.6.9-.3.3-.6.6-1.1.9-.4.3-1,.4-1.6.4Z"/>
    <path class="st1" d="M54.5,105.9c-.2,0-.5-.3-1-.8-.4-.5-.9-1.1-1.5-1.8-.6-.7-1.1-1.3-1.4-1.7h-.2c0,1.6,0,2.4,0,2.4,0,.5,0,1,0,1.5s-.1.3-.4.3-.4,0-.6-.1-.3-.2-.3-.4v-1c0-5.5,0-8.4,0-8.6,0-.2,0-.5,0-.7,0-.2,0-.4,0-.5,0-.2.2-.3.4-.3s.4,0,.6.1c.2,0,.3.2.3.4,0,1,0,2.9,0,5.6l2.4-1.9c.1,0,.2-.2.3-.3.1-.1.2-.2.2-.3,0,0,.2-.1.3-.1s.3,0,.4,0c.2,0,.3.1.4.2s.2.2.2.3-.2.3-.7.6c-.2.2-1.1.8-2.6,2,.2.3.5.6.9,1,.4.4,1.1,1.3,2.2,2.5.2.2.5.4.8.6,0,0,.1,0,.1.2s0,.2-.2.3-.2.2-.4.3-.3.1-.4.1Z"/>
    <path class="st1" d="M68.5,105.9c-.6,0-1.1-.2-1.4-.5-.3-.4-.4-.9-.4-1.6v-4.9c-.8,0-1.2,0-1.4,0-.3,0-.4-.2-.4-.7s.1-.5.4-.5c.3,0,.8,0,1.5,0v-1.1c0-.6,0-1,0-1.2s.1-.3.4-.3.4,0,.6.1.3.2.3.4c0,.6,0,1.3,0,2,1.5,0,2.4,0,2.8,0,.2,0,.3,0,.4.3,0,.2.1.3.1.5,0,.3-.1.5-.4.5s-.4,0-.6,0c-.2,0-1,0-2.3,0v5c0,.4,0,.6.1.7,0,.1.3.2.6.2.5,0,1.1-.2,1.9-.7.2-.1.3-.2.4-.2s.2,0,.2.3c0,.3-.3.7-.9,1.1-.6.5-1.2.7-1.8.7Z"/>
    <path class="st1" d="M75.8,105.9c-1,0-1.8-.3-2.4-1s-.8-1.6-.8-2.7,0-.9.2-1.4c.1-.5.3-.9.5-1.3.2-.4.4-.7.6-1s.4-.4.5-.4.3,0,.3,0c.4-.4,1-.6,1.7-.6,1.2,0,2,.6,2.6,1.9.2.6.4,1.3.4,2.1s-.3,2-.9,2.9c-.7.9-1.6,1.4-2.7,1.4ZM75.8,104.8c.9,0,1.5-.5,2-1.5.2-.5.3-1,.3-1.6,0-.9-.1-1.6-.4-2.1-.3-.5-.7-.7-1.3-.7s-1.3.4-1.8,1.1c-.5.7-.7,1.5-.7,2.3,0,1.7.6,2.5,1.9,2.5Z"/>
    <path class="st1" d="M89.7,105.8c-.2,0-.4-.1-.5-.3-.1-.2-.2-.4-.2-.6,0-.3.1-.4.3-.4h.6s1.3,0,1.3,0c0-.4,0-2.3,0-5.6-.3,0-.6,0-.8,0s-.4,0-.6,0c-.2,0-.4-.1-.5-.4-.1-.2-.2-.4-.2-.6,0-.2.1-.4.3-.4.4,0,.6,0,.7,0,.7,0,1.3,0,1.6-.2.3,0,.5.2.7.5,0,.1.1.2.1.3s0,.2,0,.2c0,0,0,.2,0,.3,0,3.1,0,4.9,0,5.5.9,0,1.5,0,1.6,0,.2,0,.4.1.5.4.1.2.2.4.2.6,0,.2-.1.4-.3.4-.4,0-1,0-1.8,0-1.4,0-2.5,0-3.2.1ZM92,96.2c-.2,0-.4-.1-.6-.4-.2-.2-.3-.5-.3-.7s0-.4.2-.6.4-.3.6-.3.4.1.6.4c.2.2.3.5.3.7s0,.4-.2.6c-.1.2-.4.3-.6.3Z"/>
    <path class="st1" d="M97.8,105.8c-.2,0-.4,0-.6-.1s-.3-.2-.3-.4c0-.3,0-.7,0-1.1v-4.9c0-.7,0-1.1,0-1.2s.1-.3.4-.3.4,0,.6.1.3.2.3.4v.7c.1-.2.4-.5.9-.8.5-.3,1.1-.5,1.6-.5.9,0,1.6.4,1.9,1.1.2.5.4,1.2.4,2,0,2.1,0,3.3,0,3.5,0,.5,0,.9,0,1.3s-.1.2-.4.2-.4,0-.6-.1c-.2,0-.3-.2-.3-.4,0,0,0-.2,0-.4s0-.4,0-.6v-3.3c0-.6,0-1.1-.2-1.5-.1-.3-.4-.5-.8-.5-.7,0-1.3.3-1.8.8-.4.6-.7,1.3-.8,2.2,0,.5,0,1.3,0,2.4s0,.7,0,1.3c0,.2-.1.2-.4.2Z"/>
    <path class="st1" d="M108.1,105.9c-.6,0-1.1,0-1.5-.2-.4-.2-.7-.3-.9-.6-.2-.2-.4-.4-.5-.6-.1-.2-.2-.3-.2-.4,0-.2,0-.4.2-.6s.3-.3.5-.3.3,0,.3.2c0,.2.2.4.3.6.1.2.3.4.6.5.3.1.6.2,1.1.2s.9-.1,1.2-.4c.3-.3.4-.6.4-.9s0-.7-.2-.9-.5-.4-1-.5c-.5-.1-1-.2-1.4-.4-1.1-.3-1.7-.9-1.7-1.9s.1-.8.4-1.1c.3-.3.6-.6,1-.8s.9-.3,1.4-.3,1.1,0,1.5.3c.4.2.6.4.8.6.2.2.2.4.2.4s0,.2,0,.3c0,.1-.1.2-.2.3s-.2.2-.4.2-.2,0-.4-.3c-.2-.4-.6-.6-1.1-.7-.1,0-.3,0-.4,0-.5,0-.9.1-1.2.3-.3.2-.4.5-.4.8s0,.4.2.5c.1.1.4.2.7.3l1.4.4c1.4.3,2.1,1.1,2.1,2.4s-.5,1.6-1.4,2.1c-.4.2-1,.3-1.6.3Z"/>
    <path class="st1" d="M115.7,105.9c-.5,0-1-.1-1.4-.4s-.7-.7-1-1.2c-.2-.5-.4-1.2-.4-2-.2-.2-.3-.4-.3-.5s.1-.3.4-.3c.1-.8.5-1.6,1.2-2.4.7-.9,1.6-1.3,2.5-1.3s1.1.1,1.5.4c.4.2.6.5.8.9s.2.8.2,1.2,0,.7,0,.9c-.1.6-1.1,1.1-3,1.4-.6,0-1.3.1-2.1.1,0,.7.1,1.3.4,1.7.3.4.7.6,1.1.6,1.2,0,2.1-.4,2.9-1.3.2-.2.3-.3.5-.3.2,0,.3,0,.3.3s0,.3-.2.5c-.3.6-.9,1.1-1.8,1.6-.5.2-1,.3-1.6.3ZM114.3,101.4h.1c.7,0,1.3,0,1.8-.1.5,0,.9-.2,1.2-.3.3,0,.5-.2.6-.3s.1-.3.1-.6c0-.9-.4-1.3-1.3-1.3s-1.2.3-1.6.9-.7,1.2-.9,1.7Z"/>
    <path class="st1" d="M122.5,105.8c-.2,0-.4,0-.6-.1-.2,0-.3-.2-.3-.4v-1c0-3.2,0-4.9,0-5.1,0-.6,0-1,0-1.2,0-.2.2-.3.4-.3s.4,0,.6.1c.2,0,.3.2.3.4s0,.4,0,.4c.4-.7,1.2-1,2.2-1s1.2.2,1.6.6c.2.2.3.3.3.5s0,.4-.2.6-.3.3-.5.3-.2,0-.3-.2c-.1-.2-.3-.3-.5-.4s-.4-.1-.5-.1c-.4,0-.8.1-1.2.4-.7.5-1,1.5-1,3,0,.4,0,.9,0,1.5s0,.7,0,1c0,.3,0,.6,0,.7s-.1.3-.4.3Z"/>
    <path class="st1" d="M132.5,105.9c-.6,0-1.1-.2-1.4-.5-.3-.4-.4-.9-.4-1.6v-4.9c-.8,0-1.2,0-1.4,0-.3,0-.4-.2-.4-.7s.1-.5.4-.5c.3,0,.8,0,1.5,0v-1.1c0-.6,0-1,0-1.2s.1-.3.4-.3.4,0,.6.1c.2,0,.3.2.3.4,0,.6,0,1.3,0,2,1.5,0,2.4,0,2.8,0,.2,0,.3,0,.4.3,0,.2.1.3.1.5,0,.3-.1.5-.4.5s-.4,0-.6,0c-.2,0-1,0-2.3,0v5c0,.4,0,.6.1.7,0,.1.3.2.6.2.5,0,1.1-.2,1.9-.7.2-.1.3-.2.4-.2s.2,0,.2.3c0,.3-.3.7-.9,1.1-.6.5-1.2.7-1.8.7Z"/>
    <path class="st1" d="M145.7,105.8c-.2,0-.4-.1-.5-.3-.1-.2-.2-.4-.2-.6,0-.3.1-.4.3-.4h.6s1.3,0,1.3,0c0-.4,0-2.3,0-5.6-.3,0-.6,0-.8,0s-.4,0-.6,0c-.2,0-.4-.1-.5-.4-.1-.2-.2-.4-.2-.6,0-.2.1-.4.3-.4.4,0,.6,0,.7,0,.7,0,1.3,0,1.6-.2.3,0,.5.2.7.5,0,.1.1.2.1.3s0,.2,0,.2c0,0,0,.2,0,.3,0,3.1,0,4.9,0,5.5.9,0,1.5,0,1.6,0,.2,0,.4.1.5.4s.2.4.2.6c0,.2-.1.4-.3.4-.4,0-1,0-1.8,0-1.4,0-2.5,0-3.2.1ZM148,96.2c-.2,0-.4-.1-.6-.4-.2-.2-.3-.5-.3-.7s0-.4.2-.6c.1-.2.4-.3.6-.3s.4.1.6.4c.2.2.3.5.3.7s0,.4-.2.6c-.1.2-.4.3-.6.3Z"/>
    <path class="st1" d="M153.4,105.8c-.2,0-.4,0-.6-.2-.2-.1-.3-.2-.3-.4v-1c0-3,0-4.7,0-4.9,0-.2,0-.5,0-.7,0-.3,0-.4,0-.6,0-.2.1-.3.4-.3s.4,0,.6.1c.1,0,.2.2.3.3h0s0,0,0,0c0,0,0,0,0,0h0c0-.1.1-.2.3-.4.2-.2.4-.3.8-.3s.7.1,1,.4c.2.3.4.5.4.5,0,0,.1-.2.4-.5s.6-.5,1-.5c1.2,0,1.8,1,1.8,3.1s0,3.2,0,3.5c0,.6,0,1.1,0,1.3s-.1.3-.4.3-.4,0-.6-.2c-.2-.1-.3-.2-.3-.4,0-.7,0-2.1,0-4.4s0-1.1-.1-1.4c0-.3-.3-.5-.5-.5s-.4.2-.6.7c-.2.4-.3,1-.4,1.8,0,.4,0,1,0,1.9v2.3c0,.2,0,.3-.4.3s-.4,0-.6-.2-.3-.2-.3-.4c0-.7,0-2.1,0-4.4s-.2-2-.6-2-.5.3-.7,1c-.2.6-.3,1.3-.3,2.2s0,1.7,0,3.4c0,.2-.1.3-.4.3ZM153.7,98.2s0,0,0,0c0,0,0-.1,0-.2v.3h0Z"/>
    <path class="st1" d="M163.1,105.9c-.8,0-1.4-.3-1.8-.8-.4-.6-.7-1.3-.7-2.4s.4-2.6,1.2-3.6c.8-1,1.6-1.5,2.6-1.5s1.3.2,1.4.5v-.2c0-.2.1-.3.4-.3s.4,0,.6.1c.2,0,.3.2.3.4,0,.5-.1,1.3-.1,2.4,0,.9,0,1.5,0,1.8,0,1.1.2,1.9.5,2.5h0c0,.2,0,.4-.2.6-.1.2-.3.3-.6.3s-.4-.1-.5-.4c-.1-.3-.2-.5-.3-.8v-.5c-.3.4-.7.8-1.2,1.2-.5.4-1.1.6-1.7.6ZM163.1,104.8c.4,0,.8-.2,1.2-.5,1-.8,1.5-2.1,1.5-4v-.4s0,0,0,0c0,0,0,0-.1,0s-.2,0-.2-.1c-.3-.5-.7-.8-1.1-.8s-1.1.4-1.6,1.1c-.5.7-.8,1.7-.8,2.8s.4,2.1,1.2,2.1Z"/>
    <path class="st1" d="M171.6,108.5c-1.3,0-2.2-.5-2.7-1.5,0,0,0-.1,0-.2,0-.2,0-.4.3-.6.2-.2.3-.3.5-.3s.3,0,.3.2c.2.4.4.7.6.9.2.2.6.3,1,.3.9,0,1.6-.4,2.1-1.2.2-.4.3-.8.3-1.4v-.6c-.2.3-.5.6-1.1.9s-1,.4-1.6.4c-.8,0-1.5-.3-1.9-.9-.5-.6-.7-1.4-.7-2.5s.4-2.1,1.1-3.1,1.6-1.4,2.6-1.4,1.4.2,1.6.5v-.2c0-.2.1-.3.4-.3s.4,0,.6.1c.2,0,.3.2.3.4,0,1,0,3.2,0,6.5s-.6,2.6-1.8,3.3c-.6.3-1.2.4-1.9.4ZM171.4,104.4c.3,0,.7,0,1-.3.9-.4,1.4-1.2,1.6-2.2,0-.3,0-1.1,0-2.2,0,0,0,0,0,0,0,0,0,0-.2,0s-.2,0-.3-.1c-.3-.4-.7-.6-1.2-.6s-1.2.4-1.7,1.1c-.5.7-.7,1.5-.7,2.3s.1,1.4.4,1.7c.2.3.6.5,1,.5Z"/>
    <path class="st1" d="M179.7,105.9c-.5,0-1-.1-1.4-.4s-.7-.7-1-1.2c-.2-.5-.4-1.2-.4-2-.2-.2-.3-.4-.3-.5s.1-.3.4-.3c.1-.8.5-1.6,1.2-2.4.7-.9,1.6-1.3,2.5-1.3s1.1.1,1.5.4c.4.2.6.5.8.9s.2.8.2,1.2,0,.7,0,.9c-.1.6-1.1,1.1-3,1.4-.6,0-1.3.1-2.1.1,0,.7.1,1.3.4,1.7.3.4.7.6,1.1.6,1.2,0,2.1-.4,2.9-1.3.2-.2.3-.3.5-.3.2,0,.3,0,.3.3s0,.3-.2.5c-.3.6-.9,1.1-1.8,1.6-.5.2-1,.3-1.6.3ZM178.3,101.4h.1c.7,0,1.3,0,1.8-.1.5,0,.9-.2,1.2-.3.3,0,.5-.2.6-.3s.1-.3.1-.6c0-.9-.4-1.3-1.3-1.3s-1.2.3-1.6.9-.7,1.2-.9,1.7Z"/>
  </g>
</svg>