<?xml version="1.0" encoding="UTF-8"?>
<svg id="Layer_1" xmlns="http://www.w3.org/2000/svg" version="1.1" viewBox="0 0 200 200">
  <!-- Generator: Adobe Illustrator 30.4.0, SVG Export Plug-In . SVG Version: 2.1.4 Build 226)  -->
  <defs>
    <style>
      .st0 {
        fill: #ddd;
      }

      .st1 {
        fill: #999;
      }
    </style>
  </defs>
  <rect class="st0" width="200" height="200"/>
  <g>
    <path class="st1" d="M62.6,91.4c-1.4,0-2.6-.3-3.4-.8-1.5-.9-2.3-2.9-2.3-5.8,0-8.3,0-12.7,0-13.3,0-.6,0-1.1,0-1.4s.3-.5.9-.5.7,0,1.1.3.6.4.6.7,0,.6,0,1.2,0,4.8,0,12.7,0,2.1.3,2.8c.2.7.5,1.2.9,1.5.4.3,1.1.4,2,.4,1.2,0,2.2-.5,2.9-1.6.7-1.1,1-2.4,1-4.1,0-7,0-11.5,0-13.5,0-.4.3-.5.9-.5s.7,0,1.1.3c.4.2.6.4.6.7s0,.6,0,1.1c0,.5,0,4.6,0,12.3s-.5,4-1.6,5.4c-1.1,1.4-2.6,2.1-4.7,2.1Z"/>
    <path class="st1" d="M73.7,91.2c-.3,0-.7,0-1.1-.3-.4-.2-.6-.4-.6-.7s0-.6,0-1.2,0-6.1,0-16.4c-.2,0-.4-.2-.7-.6-.3-.4-.4-.7-.4-1,0-.4,1.6-.9,4.7-1.4.5,0,1.3-.1,2.3-.1,4.4,0,6.6,1.7,6.6,5s-1.7,5.6-5.1,6.4c-1.4.3-2.9.5-4.6.5s-.4,0-.4,0h0c0,4.6,0,7.2,0,7.8,0,.6,0,1.1,0,1.5s-.3.5-.8.5ZM74.4,79.7h0c5.1-.4,7.6-2,7.6-5s-.3-1.6-1-2.2c-.7-.5-1.8-.8-3.2-.8s-2.4.2-3.4.5v7.5Z"/>
    <path class="st1" d="M88.3,91.2c-.5,0-.9-.3-1.2-.9-.1-.2-.2-.4-.2-.6s0-.3,0-.5c0-.1,0-.3,0-.5,0-10.9,0-16.6,0-17.2,0-.6,0-1,0-1.3s.3-.5.8-.5.7,0,1.2.3c.4.2.6.4.6.7s0,.6,0,1.1c0,.5,0,6.2,0,17,1.3,0,3.3-.1,6-.1s2,0,2.2,0c.4,0,.6.2.8.6.2.4.3.8.3,1.1,0,.5-.2.7-.6.7-.7-.1-1.8-.2-3.3-.2-3.7,0-5.9,0-6.6.3Z"/>
    <path class="st1" d="M107.2,91.4c-1.5,0-2.7-.5-3.6-1.4-.9-.9-1.6-2.2-2.1-3.8-.4-1.6-.7-3.4-.7-5.4s.3-4.5,1-6.5c.7-2.1,1.4-3.1,2.1-3.1s.5,0,.5,0c.8-1.2,2-1.7,3.5-1.7s2.4.5,3.3,1.4c.9.9,1.6,2.2,2,3.8.4,1.6.7,3.4.7,5.4,0,3.1-.5,5.7-1.6,8-1.2,2.3-2.9,3.5-5.2,3.5ZM107.1,89.1c3,0,4.5-3.1,4.5-9.4s-.3-4.1-.9-5.7c-.6-1.6-1.6-2.5-2.8-2.5s-1.3.3-2,.9c-.7.6-1.3,1.6-1.9,3-.5,1.4-.8,3.1-.8,5.2s.1,3,.4,4.3.6,2.3,1.2,3c.6.8,1.3,1.1,2.3,1.1Z"/>
    <path class="st1" d="M127.6,91.1c-.5,0-.8-.2-1-.5-.2-.7-.8-2.9-1.8-6.8l-5.3.3c-.2.7-.5,1.9-1.1,3.6l-.7,2.6c-.2.4-.6.7-1.4.7s-.5,0-.8-.2c-.3-.1-.4-.3-.4-.6s0-.2.1-.4c.7-1.5,1.3-3.3,1.9-5.5,0,0,0,0,0,0h-.1c-.2,0-.4-.1-.6-.3-.1-.2-.3-.4-.3-.7,0-.2-.1-.5-.1-.7,0-.4.2-.6.6-.6l1.2.2c1.9-6.7,3-10.7,3.1-11.8,0-.3.1-.6.3-.8.1-.2.3-.3.7-.3s.7,0,1.1.3c.4.2.7.4.7.6,0,0,0,.1,0,.2s0,.2,0,.3c0,.1,0,.2,0,.3s.2.8.5,2c2.4,9.9,4,15.4,4.7,16.7,0,0,.1.2.1.3,0,.3-.2.5-.5.7-.4.2-.7.2-1,.2ZM120.1,82.2l4.2-.2-2-8.1-2.3,8.3Z"/>
    <path class="st1" d="M133.5,91.1c-1.1,0-1.8,0-2.3-.1-.4,0-.7-.2-.8-.4-.1-.2-.2-.3-.2-.4,0-.5.4-.8,1.1-.8v-17.3c-.1,0-.3-.2-.5-.5-.2-.3-.3-.5-.3-.8,0-.6,1.1-1,3.4-1.3.6,0,1.2-.1,1.8-.1,1.4,0,2.7.4,3.9,1.1s2.1,1.9,2.8,3.4c.7,1.5,1.1,3.5,1.1,5.9s-.3,4-.9,5.5c-.6,1.5-1.4,2.7-2.3,3.6-1,.9-1.9,1.4-2.7,1.7-.9.3-1.6.4-2.2.5-.6,0-1.2,0-1.9.1ZM133.7,89.3c.7,0,1.7-.3,3-.8.7-.3,1.4-.7,2.1-1.4,1.6-1.7,2.4-4.1,2.4-7.4s-.3-3.7-.8-4.9-1.2-2-2.1-2.5c-.9-.5-1.8-.7-2.8-.7s-1.5,0-1.9.3v17.3Z"/>
    <path class="st1" d="M66.1,126.7c-.4,0-.7-.2-.9-.6s-.3-.8-.3-1.1c0-.5.2-.7.6-.7h1.2s2.3,0,2.3,0c0-.8,0-6.2,0-16.4-.9,0-1.8.1-2.5.3-.4,0-.7-.2-.9-.6-.2-.4-.3-.8-.3-1.1,0-.5.2-.7.6-.7s.4,0,.8,0c.4,0,.7,0,1.1,0,1.9,0,4-.1,6.3-.4.3,0,.6.2.8.6.2.4.3.8.3,1.1,0,.5-.2.7-.6.7-1.1,0-1.8,0-2.1,0h-1.1c0,9.4,0,14.9,0,16.5,1.9,0,2.9,0,3.2,0,.4,0,.7.2.8.7.2.4.3.8.3,1.1,0,.5-.2.7-.6.7-.7-.1-1.8-.2-3.3-.2-2.6,0-4.6,0-5.8.2Z"/>
    <path class="st1" d="M79.7,126.7c-.7,0-1.1-.2-1.1-.7.2-1.5.3-3,.4-4.4.5-9.1.8-14,.8-14.6,0-.2,0-.4,0-.6,0-.3.3-.5.7-.7.4-.2.8-.3,1.3-.3.3,0,.4.1.5.2,0,.2.4,1.3.8,3.2l1.9,9.6c.7-3.1,1.7-7.1,3-12,0-.3.1-.5.2-.8,0-.3.2-.5.6-.5s.5,0,.8.2.6.3.9.5c.3.2.4.4.4.6s0,.4,0,.6c0,.2,0,.5,0,.8.2,2.3.5,7.6.9,15.9,0,.7.2,1.5.3,2.3,0,.3-.2.5-.5.7-.3.1-.6.2-1,.2-.8,0-1.1-.2-1.1-.7,0-2.6-.1-7.5-.4-14.8-.8,3.2-1.5,5.7-1.9,7.7-.2.8-.3,1.6-.5,2.2-.1.6-.2,1.1-.2,1.3,0,.3-.2.5-.5.7s-.7.3-1,.3c-.7,0-1-.3-1.1-.9-.2-1.1-.9-4.6-2.2-10.5,0,1.8-.2,4.3-.3,7.5-.1,2.9-.2,5-.2,6.5,0,.5-.5.7-1.4.7Z"/>
    <path class="st1" d="M105.4,126.7c-.5,0-.8-.2-1-.5-.2-.7-.8-2.9-1.8-6.8l-5.3.3c-.2.7-.5,1.9-1.1,3.6l-.7,2.6c-.2.4-.6.7-1.4.7s-.5,0-.8-.2c-.3-.1-.4-.3-.4-.6s0-.2.1-.4c.7-1.5,1.3-3.3,1.9-5.5,0,0,0,0,0,0h-.1c-.2,0-.4-.1-.6-.3-.1-.2-.3-.4-.3-.7,0-.2-.1-.5-.1-.7,0-.4.2-.6.6-.6l1.2.2c1.9-6.7,3-10.7,3.1-11.8,0-.3.1-.6.3-.8.1-.2.3-.3.7-.3s.7,0,1.1.3c.4.2.7.4.7.6,0,0,0,.1,0,.2s0,.2,0,.3c0,.1,0,.2,0,.3s.2.8.5,2c2.4,9.9,4,15.4,4.7,16.7,0,0,.1.2.1.3,0,.3-.2.5-.5.7s-.7.2-1,.2ZM97.9,117.8l4.2-.2-2-8.1-2.3,8.3Z"/>
    <path class="st1" d="M114.8,127c-1.3,0-2.5-.3-3.5-.9-1-.6-1.8-1.6-2.3-2.9-.5-1.4-.8-3.2-.8-5.6s.7-6.2,2.1-8.7c1.5-2.6,3.3-3.9,5.4-3.9s2.8.4,3.6,1.2c.7.6,1.2,1.1,1.4,1.5v.3c0,.3-.1.7-.4,1.1s-.6.6-.9.6-.4-.1-.5-.4c-.6-1.4-1.6-2-3.2-2s-2.6,1-3.6,3.1c-1,2.1-1.6,4.6-1.6,7.5s.2,3.1.5,4.2c.4,1,.9,1.7,1.5,2.1s1.4.6,2.3.6,1.2-.3,1.8-.8c.6-.5,1.1-1.3,1.5-2.4s.6-2.4.6-4v-.2c-1,.1-2.1.3-3.3.4-.3,0-.5-.1-.6-.3s-.3-.5-.4-.7-.1-.5-.1-.7c0-.4.2-.6.5-.6.7,0,2.1,0,4.3-.3.3,0,.6-.1.8-.1s.4,0,.6.3c.2.2.3.4.5.6.1.2.2.4.2.6s0,.3,0,.3c0,0,0,2.3,0,6.7v2.7c0,.4-.2.6-.9.6s-.7,0-1-.2c-.3-.2-.5-.4-.5-.6v-.9c0,0-.4.5-1.2,1.1-.8.6-1.7.9-2.8.9Z"/>
    <path class="st1" d="M125.1,126.8c-.4,0-.7-.2-.9-.6-.3-.4-.4-.7-.4-1s0-.4,0-.7c0-.3,0-3.1,0-8.4-.2-.1-.4-.3-.5-.7-.1-.3-.2-.6-.2-.8,0-.3.2-.5.5-.5h.2c0-4,0-6.7,0-8.1,0-.4.2-.6.6-.6s.9.1,1.5.4l7.2-.7c.6,0,1-.1,1.1-.1.4,0,.7.2.9.6.2.4.3.7.3,1,0,.5-.2.7-.6.7h-1.9c-.3,0-2.5.2-6.7.5v6.3c3.2-.3,5.1-.4,5.5-.5.6,0,.9-.1,1.1-.1.4,0,.7.2.8.6s.3.8.3,1.1c0,.5-.2.7-.6.7h-1.9c-.3,0-2,.1-5.2.4v8.1c5.6-.1,8.5-.2,8.9-.2.3,0,.6.2.8.6.2.4.3.8.3,1.1,0,.5-.2.7-.6.7-.6,0-1.4,0-2.3,0-4.8,0-7.3.2-7.5.2-.2,0-.4.1-.8.1Z"/>
  </g>
</svg>